{"title":"Busty celebrity oil massage boobs fondled and fucked (Censored)[","uid":10756564,"size":256076186,"categoryP":"porn","categoryS":"other","magnet":"?xt=urn:btih:84b649ecaac1b93fbea8fd2bb2edfa1a17b00a6a&amp;dn=Busty+celebrity+oil+massage+boobs+fondled+and+fucked+%28Censored%29%5B&amp;tr=udp%3A%2F%2Ftracker.openbittorrent.com%3A80&amp;tr=udp%3A%2F%2Fopen.demonii.com%3A1337&amp;tr=udp%3A%2F%2Ftracker.coppersurfer.tk%3A6969&amp;tr=udp%3A%2F%2Fexodus.desync.com%3A6969","seeders":0,"leechers":1,"uploader":"vpsr","files":1,"time":1407938376,"description":"Busty celebrity oil massage boobs fondled and fucked (Censored)[VPSR].avi\n\n &lt;a href=&quot;\nhttp://s25.postimg.org/lmj26a9pb/busty.jpg&quot; rel=&quot;nofollow&quot; target=&quot;_NEW&quot;&gt;\nhttp://s25.postimg.org/lmj26a9pb/busty.jpg&lt;/a&gt;\n\n\n\n &lt;a href=&quot;\nhttp://s25.postimg.org/z4pyiklun/Busty_celebrity_oil_massage_boobs_fondled_and_fu.jpg&quot; rel=&quot;nofollow&quot; target=&quot;_NEW&quot;&gt;\nhttp://s25.postimg.org/z4pyiklun/Busty_celebrity_oil_massage_boobs_fondled_and_fu.jpg&lt;/a&gt;\n\n\n\nFILE INFO \n\n\n\n\nGeneral\nComplete name                            : Busty celebrity oil massage boobs fondled and fucked (Censored).avi\nFormat                                   : MPEG-4\nFormat profile                           : Base Media / Version 2\nCodec ID                                 : mp42\nFile size                                : 244 MiB\nDuration                                 : 29mn 19s\nOverall bit rate mode                    : Variable\nOverall bit rate                         : 1 164 Kbps\n\nVideo\nID                                       : 1\nFormat                                   : AVC\nFormat/Info                              : Advanced Video Codec\nFormat profile                           : &lt;a class=&quot;__cf_email__&quot; href=&quot;/cdn-cgi/l/email-protection&quot; data-cfemail=&quot;4406253721282d2a210408776a74&quot;&gt;[email&amp;#160;protected]&lt;/a&gt;&lt;script cf-hash='f9e31' type=&quot;text/javascript&quot;&gt;\n/* &lt;![CDATA[ */!function(){try{var t=&quot;currentScript&quot;in document?document.currentScript:function(){for(var t=document.getElementsByTagName(&quot;script&quot;),e=t.length;e--;)if(t[e].getAttribute(&quot;cf-hash&quot;))return t[e]}();if(t&amp;&amp;t.previousSibling){var e,r,n,i,c=t.previousSibling,a=c.getAttribute(&quot;data-cfemail&quot;);if(a){for(e=&quot;&quot;,r=parseInt(a.substr(0,2),16),n=2;a.length-n;n+=2)i=parseInt(a.substr(n,2),16)^r,e+=String.fromCharCode(i);e=document.createTextNode(e),c.parentNode.replaceChild(e,c)}}}catch(u){}}();/* ]]&gt; */&lt;/script&gt;\nFormat settings, CABAC                   : No\nFormat settings, ReFrames                : 1 frame\nFormat settings, GOP                     : M=1, N=33\nCodec ID                                 : avc1\nCodec ID/Info                            : Advanced Video Coding\nDuration                                 : 29mn 19s\nBit rate mode                            : Constant\nBit rate                                 : 1 000 Kbps\nWidth                                    : 720 pixels\nHeight                                   : 404 pixels\nDisplay aspect ratio                     : 16:9\nFrame rate mode                          : Variable\nFrame rate                               : 30.000 fps\nMinimum frame rate                       : 30.000 fps\nMaximum frame rate                       : 30.010 fps\nStandard                                 : NTSC\nColor space                              : YUV\nChroma subsampling                       : 4:2:0\nBit depth                                : 8 bits\nScan type                                : Progressive\nBits/(Pixel*Frame)                       : 0.115\nStream size                              : 210 MiB (86%)\nLanguage                                 : English\n\nAudio\nID                                       : 2\nFormat                                   : AAC\nFormat/Info                              : Advanced Audio Codec\nFormat profile                           : LC\nCodec ID                                 : 40\nDuration                                 : 29mn 19s\nSource duration                          : 29mn 19s\nBit rate mode                            : Variable\nBit rate                                 : 160 Kbps\nChannel(s)                               : 2 channels\nChannel positions                        : Front: L R\nSampling rate                            : 44.1 KHz\nCompression mode                         : Lossy\nStream size                              : 33.6 MiB (14%)\nSource stream size                       : 33.6 MiB (14%)\nLanguage                                 : English\nmdhd_Duration                            : 1759634\n\n","torrent":{"xt":"urn:btih:84b649ecaac1b93fbea8fd2bb2edfa1a17b00a6a","amp;dn":"Busty+celebrity+oil+massage+boobs+fondled+and+fucked+%28Censored%29%5B","amp;tr":["udp%3A%2F%2Ftracker.openbittorrent.com%3A80","udp%3A%2F%2Fopen.demonii.com%3A1337","udp%3A%2F%2Ftracker.coppersurfer.tk%3A6969","udp%3A%2F%2Fexodus.desync.com%3A6969"],"infoHash":"84b649ecaac1b93fbea8fd2bb2edfa1a17b00a6a","infoHashBuffer":{"type":"Buffer","data":[132,182,73,236,170,193,185,63,190,168,253,43,178,237,250,26,23,176,10,106]},"announce":[],"urlList":[]}}